# xmcd
#
# Track frame offsets:
#	150
#	16107
#	32312
#	55907
#	74517
#
# Disc length: 1203 seconds
#
# Revision: 0
# Processed by: cddbd v1.5.2PL0 Copyright (c) Steve Scherf et al.
# Submitted via: audiograbber 1.83.01
#
DISCID=3504b105
DTITLE=Olli.P fest. Lukas - Neugeboren ( Sony Maxi)
DYEAR=2003
DGENRE=Ballad
TTITLE0=Neugeboren (Single Mix)
TTITLE1=Neugeboren (Radio Mix)
TTITLE2=Neugeboren (Extended Mix)
TTITLE3=Neugeboren (Re-Mix)
TTITLE4=Neugeboren (Instrumental)
EXTD=
EXTT0=
EXTT1=
EXTT2=
EXTT3=
EXTT4=
PLAYORDER=
